<svg width="61" height="123" viewBox="0 0 61 123" fill="none" xmlns="http://www.w3.org/2000/svg">
<mask id="mask0_1_29079" style="mask-type:alpha" maskUnits="userSpaceOnUse" x="0" y="0" width="61" height="123">
<path d="M60.6071 3.16224V119.631C60.6071 121.248 59.3041 122.559 57.7003 122.559H3.35994C1.74746 122.559 0.453125 121.248 0.453125 119.631V3.16224C0.453125 1.54105 1.75182 0.233643 3.35558 0.233643H57.7047C59.3041 0.233643 60.6071 1.54105 60.6071 3.16224Z" fill="white"/>
</mask>
<g mask="url(#mask0_1_29079)">
<path d="M97.1779 57.934C96.96 57.4677 96.729 57.0014 96.4719 56.5395C96.132 55.9293 95.7615 55.3279 95.3562 54.7352C94.9204 54.0946 94.4498 53.4627 93.9442 52.8351C92.5148 51.0701 90.8108 49.3749 88.8453 47.7624C88.4008 47.4007 87.9432 47.0433 87.4769 46.6859C84.8272 44.6769 81.7766 42.8073 78.373 41.0989C77.789 40.807 77.1919 40.515 76.5862 40.2317C66.2576 35.3899 53.0179 32.0037 38.2529 30.7355C37.22 30.6484 36.1828 30.5699 35.1369 30.5002C31.9163 30.291 28.639 30.1733 25.3051 30.1733C23.8888 30.1733 22.4855 30.1951 21.0909 30.2344C19.7007 30.2736 18.3192 30.3302 16.9508 30.4087C12.7322 30.6397 8.62258 31.0449 4.64805 31.6028C2.77845 31.8686 0.934998 32.165 -0.869228 32.4962C-13.8518 34.8844 -25.0781 38.9896 -33.354 44.2454C-33.8814 44.581 -34.3869 44.9209 -34.8924 45.2652C-38.1479 47.4922 -40.8891 49.9022 -43.0332 52.4647C-43.7654 53.3407 -44.4409 54.2297 -45.0292 55.1362C-47.217 58.518 -48.4023 62.1047 -48.4023 65.8264C-48.4023 67.4433 -48.1583 69.0296 -47.7268 70.5898C-47.5874 71.0953 -47.4261 71.5921 -47.2431 72.0889C-46.158 75.0524 -44.3145 77.8851 -41.8173 80.5479C-41.4469 80.9401 -41.0678 81.3323 -40.6668 81.7202C-37.6859 84.6052 -33.9293 87.2723 -29.5146 89.6475C-28.9481 89.9525 -28.3597 90.2489 -27.7714 90.5452C-19.1076 94.8946 -8.19073 98.1805 4.0815 99.9629C5.01848 100.098 5.95982 100.233 6.90987 100.351C8.13883 100.503 9.38523 100.638 10.636 100.76C13.4949 101.039 16.4191 101.231 19.3869 101.344C21.3437 101.419 23.3135 101.471 25.3095 101.471C31.9642 101.471 38.4098 101.035 44.5415 100.238C45.2955 100.137 46.045 100.037 46.7903 99.9281C49.9106 99.4705 52.9395 98.9083 55.8681 98.259C56.6917 98.0759 57.511 97.8885 58.3173 97.6924C65.9177 95.849 72.7598 93.3867 78.5778 90.445C79.1661 90.1486 79.7457 89.8479 80.3123 89.5429C83.5721 87.7779 86.4658 85.8516 88.9543 83.7946C89.7605 83.1279 90.5232 82.448 91.2422 81.7551C96.2061 76.9612 99.0126 71.5529 99.0126 65.8264C99.017 63.1157 98.3676 60.4748 97.1779 57.934Z" fill="#BBDBEC"/>
<path d="M97.1779 54.2123C96.96 53.746 96.729 53.2797 96.4719 52.8177C96.132 52.2076 95.7615 51.6062 95.3562 51.0135C94.9204 50.3729 94.4498 49.741 93.9442 49.1134C92.5148 47.3484 90.8108 45.6531 88.8453 44.0406C88.4008 43.6789 87.9432 43.3216 87.4769 42.9642C84.8272 40.9551 81.7766 39.0856 78.373 37.3772C77.789 37.0852 77.1919 36.7932 76.5862 36.51C66.2576 31.6682 53.0179 28.282 38.2529 27.0138C37.22 26.9266 36.1828 26.8482 35.1369 26.7785C31.9163 26.5693 28.639 26.4516 25.3051 26.4516C23.8888 26.4516 22.4855 26.4734 21.0909 26.5126C19.7007 26.5518 18.3192 26.6085 16.9508 26.6869C12.7322 26.9179 8.62258 27.3232 4.64805 27.881C2.77845 28.1469 0.934998 28.4432 -0.869228 28.7744C-13.8518 31.1626 -25.0781 35.2679 -33.354 40.5237C-33.8814 40.8593 -34.3869 41.1992 -34.8924 41.5435C-38.1479 43.7704 -40.8891 46.1804 -43.0332 48.743C-43.7654 49.6189 -44.4409 50.508 -45.0292 51.4144C-47.217 54.7963 -48.4023 58.3829 -48.4023 62.1047C-48.4023 63.7215 -48.1583 65.3079 -47.7268 66.868C-47.5874 67.3736 -47.4261 67.8704 -47.2431 68.3672C-46.158 71.3307 -44.3145 74.1634 -41.8173 76.8262C-41.4469 77.2184 -41.0678 77.6106 -40.6668 77.9985C-37.6859 80.8835 -33.9293 83.5506 -29.5146 85.9257C-28.9481 86.2308 -28.3597 86.5271 -27.7714 86.8235C-19.1076 91.1728 -8.19073 94.4588 4.0815 96.2412C5.01848 96.3763 5.95982 96.5114 6.90987 96.6291C8.13883 96.7816 9.38523 96.9167 10.636 97.0387C13.4949 97.3176 16.4191 97.5094 19.3869 97.6227C21.3437 97.6968 23.3135 97.7491 25.3095 97.7491C31.9642 97.7491 38.4098 97.3133 44.5415 96.5158C45.2955 96.4155 46.045 96.3153 46.7903 96.2064C49.9106 95.7488 52.9395 95.1866 55.8681 94.5372C56.6917 94.3542 57.511 94.1668 58.3173 93.9707C65.9177 92.1272 72.7598 89.6649 78.5778 86.7233C79.1661 86.4269 79.7457 86.1262 80.3123 85.8211C83.5721 84.0561 86.4658 82.1299 88.9543 80.0729C89.7605 79.4061 90.5232 78.7263 91.2422 78.0333C96.2061 73.2395 99.0126 67.8312 99.0126 62.1047C99.017 59.394 98.3676 56.753 97.1779 54.2123Z" fill="#E1F3F1"/>
<path opacity="0.7" d="M32.1737 29.9642L38.2575 27.0225C37.2247 26.9353 36.1875 26.8569 35.1415 26.7871L29.986 29.2756L21.0912 26.5213C19.701 26.5605 18.3195 26.6172 16.9511 26.6956L28.1556 30.1733L19.2521 34.4791L4.57861 27.9246L4.64833 27.8941C2.77874 28.1599 0.935284 28.4563 -0.868942 28.7875L-18.0265 36.9109C-18.2052 36.937 -18.3839 36.9849 -18.5103 37.059C-18.6367 37.12 -18.7413 37.1941 -18.7892 37.2682L-29.8281 42.4979L-33.3581 40.5324C-33.8854 40.868 -34.391 41.2079 -34.8965 41.5522L-31.6585 43.3564L-43.033 48.7516C-43.7651 49.6276 -44.4406 50.5167 -45.0289 51.4231L-17.4949 38.3795L-2.69496 45.0953L-47.7266 66.868C-47.5871 67.3735 -47.4259 67.8704 -47.2428 68.3672L-41.7517 65.7131L-30.155 71.4701L-41.8171 76.8261C-41.4466 77.2183 -41.0675 77.6106 -40.6665 77.9984L-14.6665 66.0574L-1.16093 72.7209L-29.51 85.9213C-28.9434 86.2264 -28.3551 86.5228 -27.7668 86.8191L19.5833 64.7674L29.4499 69.2693L-4.75631 83.276C-5.03522 83.385 -5.18776 83.5593 -5.21391 83.7292C-5.21391 83.8992 -5.08752 84.0605 -4.8304 84.1825L12.3359 92.3364C12.3621 92.3364 12.3621 92.3364 12.3882 92.3364L4.07743 96.2412C5.01441 96.3763 5.95575 96.5114 6.9058 96.629L7.50285 96.3458L10.6319 97.0387C13.4908 97.3176 16.415 97.5094 19.3829 97.6227L9.45961 95.4219L23.4707 88.8412L44.5331 96.5114C45.287 96.4111 46.0366 96.3109 46.7818 96.202L52.8657 93.1557L55.8596 94.5328C56.6833 94.3498 57.5026 94.1624 58.3089 93.9663L54.6176 92.271L71.1999 83.9559L78.5694 86.7189C79.1577 86.4225 79.7373 86.1218 80.3039 85.8168L71.8624 82.6441C71.3525 82.4611 70.616 82.4698 70.1584 82.7051L45.2129 95.2258L25.3011 87.9696L86.4618 59.2414L88.9502 80.0729C89.7565 79.4061 90.5191 78.7262 91.2382 78.0333L88.8761 58.1999C88.8761 58.165 88.85 58.1519 88.85 58.1258L97.1738 54.2123C96.9559 53.746 96.725 53.2797 96.4678 52.8177L77.8677 61.5686L62.279 55.864L82.2693 46.9605L95.3565 51.0178C94.9207 50.3772 94.4501 49.7453 93.9445 49.1177L84.2305 46.102L88.8456 44.0493C88.4011 43.6876 87.9435 43.3302 87.4772 42.9729L81.9904 45.4134L69.4785 41.526L78.3733 37.3859C77.7893 37.0939 77.1922 36.8019 76.5865 36.5186L67.2908 40.8505L32.1737 29.9642ZM65.4125 41.7221L47.052 50.2682L38.4057 47.1087L47.4835 42.999C47.7624 42.877 47.8888 42.7027 47.8888 42.5327C47.8888 42.3628 47.7101 42.1884 47.4312 42.0795L39.4211 38.8676L46.9213 35.9913L65.4125 41.7221ZM30.3433 30.8488L44.6595 35.2897L36.5971 38.3752C36.3182 38.4972 36.1395 38.6715 36.1395 38.8545C36.1134 39.0376 36.292 39.2119 36.5971 39.3339L44.6856 42.5807L35.5817 46.7121C35.3028 46.8341 35.1502 47.0084 35.1764 47.1915C35.2025 47.3745 35.3812 47.5358 35.6863 47.6447L45.1955 51.1355L29.9642 58.2173L0.948357 45.0473L30.3433 30.8488ZM-15.6601 37.5166L2.77874 28.7831L17.4522 35.3376L-0.908165 44.2149L-15.6601 37.5166ZM-28.3028 70.6203L-39.9736 64.8415L-13.4767 52.0376L-1.26988 58.213L-28.3028 70.6203ZM0.665085 71.8754L-12.8143 65.212L1.4016 58.6836C1.65436 58.5747 1.7851 58.4134 1.80689 58.2522C1.80689 58.0779 1.68051 57.921 1.44953 57.8076L-11.6987 51.166L-0.838436 45.9276L28.1251 59.0846L0.665085 71.8754ZM56.4087 71.6531L39.8787 64.6541L48.5512 60.3266L64.445 67.8791L56.4087 71.6531ZM76.0156 62.4446L66.2754 67.0205L49.4141 59.0279C49.1875 58.9189 48.9304 58.8536 48.4989 58.8536C48.1677 58.8536 47.8365 58.9146 47.6099 59.0366L37.1331 64.2619C36.8804 64.3839 36.7496 64.5452 36.7496 64.7151C36.7758 64.8764 36.9283 65.0333 37.1811 65.1466L54.574 72.5117L14.1881 91.4866C14.1619 91.4735 14.1358 91.4604 14.1358 91.4517L-2.0369 83.7772L32.1693 69.7705C32.4483 69.6615 32.6269 69.4872 32.6269 69.3172C32.6269 69.1429 32.5005 68.9729 32.2216 68.8509L21.4137 63.9176L47.2264 51.8894L76.0156 62.4446ZM80.0598 46.2719L60.222 55.1013L49.0829 51.0309L67.5958 42.4107L80.0598 46.2719Z" fill="white"/>
<path d="M18.8147 20.1107C15.7685 20.1107 13.3105 22.5991 13.3105 25.6628C13.3105 28.7178 18.8147 35.3289 18.8147 35.3289C18.8147 35.3289 24.3189 28.7134 24.3189 25.6628C24.3189 22.5991 21.8567 20.1107 18.8147 20.1107ZM18.8147 28.757C17.1108 28.757 15.738 27.3624 15.738 25.6628C15.738 23.9501 17.1108 22.5686 18.8147 22.5686C20.5187 22.5686 21.8915 23.9501 21.8915 25.6628C21.8872 27.3624 20.5144 28.757 18.8147 28.757Z" fill="#06AC9B"/>
<path d="M18.807 29.2233C20.7446 29.2233 22.3153 27.6409 22.3153 25.6889C22.3153 23.7369 20.7446 22.1545 18.807 22.1545C16.8695 22.1545 15.2988 23.7369 15.2988 25.6889C15.2988 27.6409 16.8695 29.2233 18.807 29.2233Z" fill="white"/>
<path d="M46.9365 39.103C44.4829 39.103 42.5 41.1077 42.5 43.5743C42.5 46.0322 46.9365 51.3621 46.9365 51.3621C46.9365 51.3621 51.373 46.0366 51.373 43.5743C51.3686 41.1033 49.3901 39.103 46.9365 39.103ZM46.9365 46.0671C45.5637 46.0671 44.4611 44.9471 44.4611 43.5743C44.4611 42.1928 45.5681 41.0815 46.9365 41.0815C48.3049 41.0815 49.4118 42.1972 49.4118 43.5743C49.4118 44.9427 48.3049 46.0671 46.9365 46.0671Z" fill="#06AC9B"/>
<path d="M49.7583 43.5961C49.7583 45.1694 48.4945 46.4419 46.9299 46.4419C45.3654 46.4419 44.1016 45.1694 44.1016 43.5961C44.1016 42.0229 45.3654 40.7503 46.9299 40.7503C48.4945 40.7503 49.7583 42.0229 49.7583 43.5961Z" fill="white"/>
<path d="M18.8154 70.4808C14.9455 70.4808 11.8164 73.6404 11.8164 77.5365C11.8164 81.4195 18.8154 89.8305 18.8154 89.8305C18.8154 89.8305 25.8144 81.4195 25.8144 77.5365C25.8144 73.6448 22.6854 70.4808 18.8154 70.4808ZM18.8154 81.4762C16.6495 81.4762 14.9063 79.7068 14.9063 77.5409C14.9063 75.3618 16.6538 73.6055 18.8154 73.6055C20.9814 73.6055 22.7246 75.3618 22.7246 77.5409C22.7246 79.7068 20.977 81.4762 18.8154 81.4762Z" fill="#06AC9B"/>
<path d="M18.8064 82.0689C21.271 82.0689 23.269 80.0572 23.269 77.5757C23.269 75.0942 21.271 73.0826 18.8064 73.0826C16.3417 73.0826 14.3438 75.0942 14.3438 77.5757C14.3438 80.0572 16.3417 82.0689 18.8064 82.0689Z" fill="white"/>
</g>
</svg>
